<svg width="24" height="24" viewBox="0 0 24 24" fill="none" xmlns="http://www.w3.org/2000/svg">
<path d="M5.31891 14.5032L4.4835 17.6219L1.43011 17.6865C0.517594 15.994 0 14.0575 0 11.9998C0 10.0099 0.483938 8.13339 1.34175 6.48111H1.34241L4.06078 6.97948L5.2516 9.68152C5.00236 10.4081 4.86652 11.1881 4.86652 11.9998C4.86661 12.8806 5.02618 13.7246 5.31891 14.5032Z" fill="#FBBB00"/>
<path d="M23.7904 9.75824C23.9282 10.4841 24 11.2338 24 12C24 12.8591 23.9097 13.6971 23.7376 14.5055C23.1535 17.2562 21.6271 19.6582 19.5126 21.3579L19.512 21.3573L16.088 21.1826L15.6034 18.1575C17.0065 17.3347 18.103 16.047 18.6806 14.5055H12.2639V9.75824H18.7742H23.7904Z" fill="#518EF8"/>
<path d="M19.5118 21.3574L19.5125 21.358C17.456 23.011 14.8437 24 12 24C7.43006 24 3.45688 21.4457 1.43005 17.6869L5.31885 14.5036C6.33224 17.2082 8.94126 19.1335 12 19.1335C13.3147 19.1335 14.5463 18.7781 15.6032 18.1576L19.5118 21.3574Z" fill="#28B446"/>
<path d="M19.6596 2.7626L15.7721 5.9452C14.6783 5.26149 13.3853 4.86652 12.0001 4.86652C8.87213 4.86652 6.21432 6.88012 5.25169 9.68167L1.34245 6.48126H1.3418C3.33895 2.63075 7.36224 0 12.0001 0C14.9117 0 17.5814 1.03715 19.6596 2.7626Z" fill="#F14336"/>
</svg>
